<?xml version="1.0" standalone="no"?><!DOCTYPE svg PUBLIC "-//W3C//DTD SVG 1.1//EN" "http://www.w3.org/Graphics/SVG/1.1/DTD/svg11.dtd"><svg t="1673972365858" class="icon" viewBox="0 0 1024 1024" version="1.1" xmlns="http://www.w3.org/2000/svg" p-id="14674" xmlns:xlink="http://www.w3.org/1999/xlink" width="200" height="200"><path d="M511.36 545.4144c21.15072 0 40.29952-8.57856 54.16576-22.43584l375.20896-375.21152c-1.91744-1.00608-3.94624-1.8176-6.03264-2.50624-0.91648-0.29824-1.81376-0.63104-2.75712-0.864-0.80512-0.20096-1.64608-0.33152-2.47808-0.4864-2.08512-0.35456-4.1984-0.64-6.3872-0.64H99.63904c-2.18752 0-4.3008 0.28544-6.39616 0.64-0.82304 0.15488-1.664 0.28544-2.46912 0.4864-0.94464 0.23424-1.85088 0.56576-2.7584 0.864-2.08512 0.68864-4.11392 1.50016-6.03008 2.50624l375.21664 375.21152c13.85728 13.85728 33.00736 22.43584 54.15808 22.43584M61.35808 181.30688c0 0.08832-0.01792 0.1728-0.01792 0.26112v536.19456c0 0.50432 0.13056 0.98688 0.14848 1.4912l268.91136-268.91008L61.35808 181.30688z m531.24864 368.75008c-20.79488 20.79616-49.52064 33.65632-81.24672 33.65632s-60.45056-12.86016-81.24672-33.65632l-72.62464-72.63488-274.624 274.62016a41.0624 41.0624 0 0 0 7.64032 2.80448c0.17792 0.03712 0.32768 0.11136 0.50432 0.14976 2.76864 0.68096 5.64864 1.06624 8.63104 1.06624h823.44064c2.98368 0 5.86368-0.38528 8.63104-1.06624 0.16768-0.0384 0.32768-0.11264 0.49536-0.14976a40.39424 40.39424 0 0 0 7.64032-2.80448L665.24032 477.42336l-72.6336 72.6336z m368.74624-368.75008L692.32 450.34496l268.91264 268.91008c0.01792-0.5056 0.1472-0.98688 0.1472-1.4912V181.56928c0-0.0896-0.02688-0.17408-0.02688-0.2624" fill="#FFFFFF" p-id="14675"></path><path d="M291.13728 258.1632h153.19936v-19.1488H291.13728v19.1488z m0-38.29888H501.7856v-19.15008H291.13728v19.15008z" fill="#EE6A56" p-id="14676"></path><path d="M118.78912 689.03424H99.63904v19.15008h19.15008v-19.15008z m-57.44896 19.15008h19.1488v-19.15008h-19.1488v19.15008z m19.1488-19.15008h19.15008v-19.1488H80.48896v19.1488z m38.30016-38.30016H99.63904v19.15136h19.15008v-19.15136z m-57.44896 19.15136h19.1488v-19.15136h-19.1488v19.15136z m19.1488-19.15136h19.15008v-19.1488H80.48896v19.1488z m38.30016-38.30016H99.63904v19.15136h19.15008v-19.15136z m-57.44896 19.15136h19.1488v-19.15136h-19.1488v19.15136z m19.1488-19.15136h19.15008v-19.1488H80.48896v19.1488z m38.30016-38.2976H99.63904v19.1488h19.15008v-19.1488z m-57.44896 19.1488h19.1488v-19.1488h-19.1488v19.1488z m19.1488-19.1488h19.15008v-19.15136H80.48896v19.15136z m38.30016-38.30016H99.63904v19.1488h19.15008v-19.1488z m-57.44896 19.1488h19.1488v-19.1488h-19.1488v19.1488z m19.1488-19.1488h19.15008v-19.15008H80.48896v19.15008zM118.78912 497.536H99.63904v19.15008h19.15008V497.536z m-57.44896 19.15008h19.1488V497.536h-19.1488v19.15008z m19.1488-19.15008h19.15008v-19.15008H80.48896V497.536z m38.30016-38.30016H99.63904v19.15008h19.15008v-19.15008z m-57.44896 19.15008h19.1488v-19.15008h-19.1488v19.15008z m19.1488-19.15008h19.15008v-19.1488H80.48896v19.1488z m38.30016-38.29888H99.63904v19.15008h19.15008v-19.15008z m-57.44896 19.15008h19.1488v-19.15008h-19.1488v19.15008z m19.1488-19.15008h19.15008v-19.15008H80.48896v19.15008z m38.30016-38.30016H99.63904v19.15008h19.15008v-19.15008z m-57.44896 19.15008h19.1488v-19.15008h-19.1488v19.15008z m19.1488-19.15008h19.15008v-19.15008H80.48896v19.15008z m38.30016-38.29888H99.63904v19.1488h19.15008v-19.1488z m-57.44896 19.1488h19.1488v-19.1488h-19.1488v19.1488z m19.1488-19.1488h19.15008v-19.15008H80.48896v19.15008z m38.30016-38.30016H99.63904v19.15008h19.15008v-19.15008z m-57.44896 19.15008h19.1488v-19.15008h-19.1488v19.15008z m19.1488-19.15008h19.15008v-19.15008H80.48896v19.15008z m38.30016-38.29888H99.63904v19.1488h19.15008v-19.1488z m-57.44896 19.1488h19.1488v-19.1488h-19.1488v19.1488z m19.1488-19.1488h19.15008V248.5888H80.48896v19.15008z m38.30016-38.30016H99.63904v19.15008h19.15008v-19.15008zM61.34016 248.5888h19.1488v-19.15008h-19.1488v19.15008z m19.1488-19.15008h19.15008v-19.15008H80.48896v19.15008z m19.15008-19.15008h19.15008v-19.1488H99.63904v19.1488z m-38.29888 0h19.1488v-19.1488h-19.1488v19.1488z m900.03968 478.7456h-19.1488v19.15008h19.1488v-19.15008z m-57.44896 19.15008h19.1488v-19.15008h-19.1488v19.15008z m19.1488-19.15008h19.15136v-19.1488h-19.15136v19.1488z m38.30016-38.30016h-19.1488v19.15136h19.1488v-19.15136z m-57.44896 19.15136h19.1488v-19.15136h-19.1488v19.15136z m19.1488-19.15136h19.15136v-19.1488h-19.15136v19.1488z m38.30016-38.30016h-19.1488v19.15136h19.1488v-19.15136z m-57.44896 19.15136h19.1488v-19.15136h-19.1488v19.15136z m19.1488-19.15136h19.15136v-19.1488h-19.15136v19.1488z m38.30016-38.2976h-19.1488v19.1488h19.1488v-19.1488z m-57.44896 19.1488h19.1488v-19.1488h-19.1488v19.1488z m19.1488-19.1488h19.15136v-19.15136h-19.15136v19.15136z m38.30016-38.30016h-19.1488v19.1488h19.1488v-19.1488z m-57.44896 19.1488h19.1488v-19.1488h-19.1488v19.1488z m19.1488-19.1488h19.15136v-19.15008h-19.15136v19.15008z m38.30016-38.30016h-19.1488v19.15008h19.1488V497.536z m-57.44896 19.15008h19.1488V497.536h-19.1488v19.15008z m19.1488-19.15008h19.15136v-19.15008h-19.15136V497.536z m38.30016-38.30016h-19.1488v19.15008h19.1488v-19.15008z m-57.44896 19.15008h19.1488v-19.15008h-19.1488v19.15008z m19.1488-19.15008h19.15136v-19.1488h-19.15136v19.1488z m38.30016-38.29888h-19.1488v19.15008h19.1488v-19.15008z m-57.44896 19.15008h19.1488v-19.15008h-19.1488v19.15008z m19.1488-19.15008h19.15136v-19.15008h-19.15136v19.15008z m38.30016-38.30016h-19.1488v19.15008h19.1488v-19.15008z m-57.44896 19.15008h19.1488v-19.15008h-19.1488v19.15008z m19.1488-19.15008h19.15136v-19.15008h-19.15136v19.15008z m38.30016-38.29888h-19.1488v19.1488h19.1488v-19.1488z m-57.44896 19.1488h19.1488v-19.1488h-19.1488v19.1488z m19.1488-19.1488h19.15136v-19.15008h-19.15136v19.15008z m38.30016-38.30016h-19.1488v19.15008h19.1488v-19.15008z m-57.44896 19.15008h19.1488v-19.15008h-19.1488v19.15008z m19.1488-19.15008h19.15136v-19.15008h-19.15136v19.15008z m38.30016-38.29888h-19.1488v19.1488h19.1488v-19.1488z m-57.44896 19.1488h19.1488v-19.1488h-19.1488v19.1488z m19.1488-19.1488h19.15136V248.5888h-19.15136v19.15008z m38.30016-38.30016h-19.1488v19.15008h19.1488v-19.15008z m-57.44896 19.15008h19.1488v-19.15008h-19.1488v19.15008z m19.1488-19.15008h19.15136v-19.15008h-19.15136v19.15008z m38.30016-38.29888h-19.1488v19.1488h19.1488v-19.1488z m-57.44896 19.1488h19.1488v-19.1488h-19.1488v19.1488z" fill="" p-id="14677"></path><path d="M923.07968 104.96512H99.63904C57.3376 104.96512 23.04 139.26272 23.04 181.56416v536.19328c0 42.30272 34.2976 76.60032 76.59904 76.60032h823.44064c42.30272 0 76.60032-34.2976 76.60032-76.60032V181.56416c0-42.30144-34.2976-76.59904-76.60032-76.59904M99.63904 143.26528h823.44064c6.40512 0 12.352 1.72032 17.65504 4.49792L565.52576 522.97344c-13.86624 13.86752-33.01504 22.43584-54.16576 22.43584s-40.3008-8.56832-54.16704-22.43584L81.98528 147.76192c5.30176-2.77632 11.24864-4.49664 17.65376-4.49664m-38.29888 38.29888c0-0.08832 0.02688-0.1728 0.02688-0.2624l269.03296 269.03808L61.48864 719.24992c-0.01792-0.5056-0.14848-0.98688-0.14848-1.49248V181.56416zM923.07968 756.0576H99.63904c-6.0416 0-11.68768-1.52192-16.7744-4.02176L357.4784 477.4272l72.63488 72.62592c20.78592 20.7936 49.51168 33.65632 81.24672 33.65632s60.4608-12.86272 81.24672-33.65632l72.6336-72.62592 274.61504 274.60864c-5.08672 2.49856-10.73408 4.02176-16.77568 4.02176m38.30016-38.30016c0 0.50688-0.13056 0.98688-0.1472 1.49248L692.32 450.33984l269.03296-269.03808c0 0.08832 0.02688 0.1728 0.02688 0.2624v536.19328z" fill="" p-id="14678"></path></svg>